<svg xmlns="http://www.w3.org/2000/svg" xmlns:xlink="http://www.w3.org/1999/xlink" width="65.507" height="65.496" viewBox="0 0 65.507 65.496">
  <defs>
    <linearGradient id="linear-gradient" y1="0.5" x2="1" y2="0.5" gradientUnits="objectBoundingBox">
      <stop offset="0" stop-color="#f35c04"/>
      <stop offset="1" stop-color="#f20406"/>
    </linearGradient>
  </defs>
  <path id="_5g2imT.tif" data-name="5g2imT.tif" d="M6565.029,3058.277a1.425,1.425,0,0,1,.665,1.418q0,6.931,0,13.862c0,.191.007.383,0,.575-.008.314.129.482.456.466.021,0,.043,0,.064,0,1.759-.008,1.45.172,1.475-1.367.014-.851-.026-1.7.017-2.554.049-.988.9-1.487,1.613-.987a1.194,1.194,0,0,1,.465,1.065c0,1.065.022,2.13-.006,3.194-.014.5.168.671.666.658,1.529-.037,1.333.16,1.34-1.321.009-2.108-.007-4.216.009-6.324a1.018,1.018,0,0,0-.543-1.033,2.972,2.972,0,0,1-1.347-3.471,3.072,3.072,0,0,1,5.86-.057,2.988,2.988,0,0,1-1.278,3.5,1.129,1.129,0,0,0-.617,1.122q.04,3.417,0,6.835c-.009.6.2.774.773.749a6.546,6.546,0,0,1,3.72.641,5.11,5.11,0,0,1,2.673,4.371c.031.53.02,1.064.007,1.6-.009.366.11.556.509.548.809-.016,1.619,0,2.428-.012a1.955,1.955,0,0,0,1.363-.619c2-1.979,3.98-3.97,5.979-5.946.25-.247.183-.479.108-.754a3.056,3.056,0,0,1,4.566-3.447,3.321,3.321,0,0,1,1.374,1.86v1.534c-.838,1.8-2.155,2.583-3.768,2.144a.933.933,0,0,0-1.05.316c-1.826,1.847-3.678,3.669-5.5,5.518a4.616,4.616,0,0,1-3.155,1.48c-.51.024-1.022.011-1.533.018-1.483.018-1.286-.188-1.323,1.34-.012.5.151.684.658.668.914-.03,1.831-.009,2.746-.008.171,0,.341,0,.511,0,.716.036,1.165.413,1.192,1,.029.6-.431,1.051-1.175,1.081-.851.033-1.7,0-2.555.015-1.54.026-1.359-.284-1.368,1.475,0,.021,0,.042,0,.063-.017.327.15.465.465.457.192,0,.383,0,.575,0q6.9,0,13.8,0a1.468,1.468,0,0,1,1.483.666v.767a1.424,1.424,0,0,1-1.419.665q-6.965,0-13.928,0c-.213,0-.426,0-.639.013a.306.306,0,0,0-.325.321c-.006.447-.021.895.006,1.34.023.373.34.32.586.321.958.007,1.917,0,2.875.005a4.1,4.1,0,0,1,.637.031,1.049,1.049,0,0,1,.982,1.065,1.03,1.03,0,0,1-1.068.981c-1.107.033-2.215.032-3.322.009-.5-.011-.735.112-.719.672.044,1.523-.158,1.327,1.33,1.333,2.108.01,4.217-.008,6.325.01a1.017,1.017,0,0,0,1.029-.55,2.975,2.975,0,0,1,3.414-1.357,3.073,3.073,0,0,1,.1,5.88,2.966,2.966,0,0,1-3.459-1.239,1.234,1.234,0,0,0-1.231-.66q-3.385.044-6.772,0c-.547-.006-.759.143-.74.719a8.088,8.088,0,0,1-.145,2.54,1,1,0,0,1-1.984-.291c.123-5.452.024-10.9.052-16.355q.016-3.385,0-6.772c-.008-2.19-1.169-3.371-3.339-3.373q-10.958-.01-21.915,0c-.4,0-.808.036-1.212.049a1.026,1.026,0,0,1-1.141-.873,1.048,1.048,0,0,1,.845-1.117,7.9,7.9,0,0,1,2.477-.136c.606.025.762-.2.751-.773-.061-3.2.367-2.558-2.069-5q-2.19-2.193-4.379-4.385a.747.747,0,0,0-.829-.273,3.019,3.019,0,0,1-3.849-2.023,3.071,3.071,0,0,1,2.026-3.811c.059-.023.116-.052.175-.077h1.533a3.085,3.085,0,0,1,2.141,3.827.832.832,0,0,0,.271.943c1.861,1.843,3.7,3.708,5.565,5.548a4.621,4.621,0,0,1,1.481,3.155c.024.51.012,1.022.018,1.533.018,1.485-.188,1.288,1.338,1.325.494.012.687-.146.67-.655-.03-.915-.009-1.831-.008-2.747,0-.17,0-.341,0-.511.036-.717.412-1.165,1-1.194s1.052.43,1.082,1.174c.034.85,0,1.7.016,2.555.025,1.541-.284,1.36,1.473,1.369.021,0,.042,0,.063,0,.327.016.466-.149.459-.465-.005-.191,0-.383,0-.574q0-6.9,0-13.8a1.47,1.47,0,0,1,.666-1.482Zm-17.821,2.016a.946.946,0,0,0-.95.982.974.974,0,0,0,.993,1.014,1.054,1.054,0,0,0,.977-.993A1.026,1.026,0,0,0,6547.208,3060.293Zm47.164,12.319a.975.975,0,0,0-1.016.991,1.052,1.052,0,0,0,.99.979,1.02,1.02,0,0,0,1-1.018A.944.944,0,0,0,6594.372,3072.612Zm-21.52-10.238a.948.948,0,0,0-1,.92,1.035,1.035,0,0,0,.979,1.044,1,1,0,0,0,.991-1.017A.928.928,0,0,0,6572.852,3062.374Zm19.49,37.8a.929.929,0,0,0,.928-.985.948.948,0,0,0-1-.984,1.041,1.041,0,0,0-.962,1A1,1,0,0,0,6592.342,3100.172Zm-42.007-9.548c0,3.727.06,7.456-.023,11.182a3.241,3.241,0,0,0,3.494,3.526c7.221-.059,14.442-.022,21.664-.025.447,0,.893-.036,1.34-.049a1.025,1.025,0,0,1,1.135.881,1.049,1.049,0,0,1-.854,1.111,8.281,8.281,0,0,1-2.478.136c-.544-.015-.755.136-.743.715.064,3.263-.373,2.606,2.076,5.058,1.446,1.447,2.9,2.887,4.333,4.343a.838.838,0,0,0,.943.285,2.987,2.987,0,0,1,3.472,1.359,3.046,3.046,0,0,1-.44,3.715,3.1,3.1,0,0,1-3.653.546,3.024,3.024,0,0,1-1.486-3.483.883.883,0,0,0-.287-1c-1.817-1.8-3.6-3.634-5.436-5.409a4.971,4.971,0,0,1-1.607-3.882c.013-.553-.01-1.108,0-1.661.01-.392-.118-.588-.548-.582-1.744.023-1.426-.171-1.453,1.391-.014.831.01,1.662-.009,2.492-.016.753-.423,1.215-1.03,1.221s-1.026-.454-1.046-1.212c-.029-1.086-.026-2.173-.006-3.259.009-.463-.146-.646-.625-.636-1.607.034-1.373-.163-1.377,1.344q-.013,6.678,0,13.356a2.717,2.717,0,0,1-.113,1.009,1,1,0,0,1-1.865.012,2.609,2.609,0,0,1-.117-1.008q0-6.935,0-13.868c0-.836,0-.841-.855-.837-1.232,0-1.14-.129-1.143,1.126,0,.9.007,1.79-.006,2.684a1.182,1.182,0,0,1-.669,1.208,1.034,1.034,0,0,1-1.409-1.065c-.031-1.042-.044-2.088,0-3.13.028-.636-.154-.868-.819-.838-1.309.058-1.191-.128-1.193,1.22,0,2.172.006,4.345-.007,6.518a.927.927,0,0,0,.508.923,2.98,2.98,0,0,1,1.393,3.457,3.073,3.073,0,0,1-5.881.068,2.991,2.991,0,0,1,1.311-3.492,1.08,1.08,0,0,0,.591-1.072c-.022-2.279-.031-4.559,0-6.838.009-.631-.2-.81-.807-.781a6.428,6.428,0,0,1-3.718-.656,5.106,5.106,0,0,1-2.641-4.327c-.034-.531-.025-1.065-.007-1.6.013-.4-.122-.588-.548-.577-.788.021-1.576,0-2.364.012a2.016,2.016,0,0,0-1.419.647c-1.981,1.965-3.948,3.944-5.935,5.9-.3.3-.166.564-.088.871a3.063,3.063,0,1,1-2.209-2.191.943.943,0,0,0,1.051-.314c1.8-1.818,3.631-3.6,5.41-5.434a4.952,4.952,0,0,1,3.827-1.585c.554.011,1.108-.013,1.661.005.422.015.623-.12.615-.581-.029-1.683.166-1.4-1.362-1.42-.83-.013-1.662.008-2.492-.008-.763-.013-1.226-.4-1.251-1-.025-.619.455-1.06,1.246-1.079,1.086-.024,2.173-.021,3.259,0,.436.007.608-.149.6-.6-.03-1.658.169-1.4-1.377-1.4-4.452-.012-8.9,0-13.356-.005a2.692,2.692,0,0,1-.947-.1,1,1,0,0,1-.007-1.886,2.856,2.856,0,0,1,1.01-.1h13.8c.866,0,.866,0,.868-.89,0-.17-.014-.342,0-.511.04-.439-.146-.612-.59-.6-.936.02-1.874.006-2.811,0-.192,0-.385.007-.575-.012-.706-.071-1.145-.493-1.126-1.068a1.07,1.07,0,0,1,1.18-1.006c1.107-.021,2.215-.02,3.323,0,.433.007.611-.139.6-.59-.031-1.651.168-1.4-1.375-1.412-2.109-.013-4.218.006-6.326-.011a.972.972,0,0,0-.971.539,2.979,2.979,0,0,1-3.471,1.353,3.072,3.072,0,0,1-.063-5.862,2.989,2.989,0,0,1,3.5,1.279,1.134,1.134,0,0,0,1.123.617c2.258-.028,4.517-.037,6.774,0,.668.012.843-.213.814-.844a7.657,7.657,0,0,1,.113-2.289c.167-.652.627-1.031,1.163-.942.566.094.85.541.848,1.226q-.012,5.847,0,11.694Zm-14.4,17.783a1.052,1.052,0,0,0-.979-.99,1.018,1.018,0,0,0-1.015,1.006.941.941,0,0,0,.966.963A.975.975,0,0,0,6535.935,3108.407Zm46.1,13.295a.937.937,0,0,0,.992-.934.975.975,0,0,0-.947-1.06,1.058,1.058,0,0,0-1.022,1.013A1.022,1.022,0,0,0,6582.039,3121.7Zm-45.067-37.9a1.039,1.039,0,0,0,1.013-1.011,1,1,0,0,0-.986-.96.933.933,0,0,0-.979,1A.953.953,0,0,0,6536.972,3083.8Zm19.488,35.828a.95.95,0,0,0,.983-.942,1.038,1.038,0,0,0-1-1.023,1,1,0,0,0-.97,1.039A.93.93,0,0,0,6556.46,3119.625Zm14.983-36.152c-.214.483.109.633.5.8a4.369,4.369,0,0,1,1.9,6.935.427.427,0,0,0-.005.612c1.666,2.37,1.357,4.59-.884,6.385a1.064,1.064,0,0,0-.454.663c-.483,2.935-4.453,4.58-7.271,2.407a.788.788,0,0,0-1.182.01c-2.756,2.117-6.834.618-7.3-2.619a1.2,1.2,0,0,0-.472-.789,4.735,4.735,0,0,1-1.147-6.3c.133-.23.247-.42.056-.693a4.367,4.367,0,0,1,2.127-6.588.779.779,0,0,0,.556-.936c-.1-2.07,2.1-3.888,4.3-3.608a3.812,3.812,0,0,1,2.053.807c.335.286.536.229.863-.016a4.053,4.053,0,0,1,5.894,1.136A3.531,3.531,0,0,1,6571.443,3083.473Zm-5.75,11.653c0,.852.058,1.708-.012,2.555-.163,1.991,1.532,2.743,3.091,2.444a2.1,2.1,0,0,0,1.712-1.686,1.957,1.957,0,0,0-1.227-2.039c-.114-.058-.232-.108-.344-.17a1.021,1.021,0,0,1-.575-1.369,1.037,1.037,0,0,1,1.414-.482,3.993,3.993,0,0,1,2.03,1.482c.26.38.428.3.653-.025a2.288,2.288,0,0,0-.706-3.191c-1.176-.839-1.173-1.424.015-2.277a2.274,2.274,0,0,0,1.049-1.741,2.652,2.652,0,0,0-2.574-2.7,5.807,5.807,0,0,0-1.826.227.968.968,0,0,1-1.248-.695.987.987,0,0,1,.654-1.224,5.49,5.49,0,0,1,1.041-.295.557.557,0,0,0,.507-.617,1.257,1.257,0,0,0-.508-1.051,1.908,1.908,0,0,0-3.161,1.082c-.128.557-.414.949-1.024.954s-.907-.379-1.038-.937a1.846,1.846,0,0,0-2.3-1.525,1.464,1.464,0,0,0-1.167,2.185c.6,1.156.266,1.777-1.028,1.89a3,3,0,0,0-2.108,1.063,2.262,2.262,0,0,0-.336,2.4c.155.312.326.409.647.219a4.105,4.105,0,0,1,1.257-.454,1.01,1.01,0,0,1,1.257.694.949.949,0,0,1-.591,1.2c-.3.149-.642.229-.95.372a2.85,2.85,0,0,0-1.346,4.206c.256.369.43.442.748.04a1.011,1.011,0,0,1,1.547-.289c.447.369.463.934.043,1.539-.048.07-.1.136-.15.207a1.82,1.82,0,0,0,.5,2.628,2.679,2.679,0,0,0,2.8.171,2.227,2.227,0,0,0,1.184-2.217c.038-1.575-.022-3-1.825-3.642a.824.824,0,0,1-.42-1.092.924.924,0,0,1,1.011-.706,1.783,1.783,0,0,1,.672.173c.454.234.546.055.542-.376-.013-1.363-.009-2.726,0-4.089a2.732,2.732,0,0,1,.09-.755.917.917,0,0,1,.944-.71.934.934,0,0,1,.96.692,2.14,2.14,0,0,1,.093.563c.038.742.035.745.761.48a5.025,5.025,0,0,1,1.3-.3,1.135,1.135,0,0,1,1.358.954c.05.58-.4,1.022-1.15,1.12-.084.011-.171.009-.255.02a2.181,2.181,0,0,0-2.013,2.295C6565.689,3093.252,6565.693,3094.189,6565.693,3095.126Z" transform="translate(-6531.861 -3058.277)" fill="url(#linear-gradient)"/>
</svg>
