<svg xmlns="http://www.w3.org/2000/svg" width="516.219" height="214.958" viewBox="0 0 516.219 214.958">
  <g id="Group_890" data-name="Group 890" transform="translate(-6801.655 -180.989)">
    <path id="Path_10761" data-name="Path 10761" d="M7148.3,223.021V357.256h-344.65v2.551H7148.3v.052H7317.78V223.021Z" fill="#f20406"/>
    <g id="Group_878" data-name="Group 878">
      <path id="Path_10762" data-name="Path 10762" d="M6889.222,182.613a2.809,2.809,0,0,0-1.752.476,2.009,2.009,0,0,0-.616,1.683v2.577h2.832v1.6h-2.832v9.7h-1.787v-9.7h-1.625v-1.6h1.625v-2.693a3.524,3.524,0,0,1,1.01-2.762,3.931,3.931,0,0,1,2.727-.9,5.34,5.34,0,0,1,1.416.185v1.509A8.022,8.022,0,0,0,6889.222,182.613Z"/>
      <path id="Path_10763" data-name="Path 10763" d="M6899.227,181.731a1.289,1.289,0,0,1,.928.383,1.29,1.29,0,0,1,.012,1.846,1.3,1.3,0,0,1-.94.371,1.341,1.341,0,0,1-.952-.371,1.276,1.276,0,0,1,0-1.846A1.318,1.318,0,0,1,6899.227,181.731Zm.882,5.618v11.3h-1.788v-11.3Z"/>
      <path id="Path_10764" data-name="Path 10764" d="M6915.684,187.094a3.957,3.957,0,0,1,3.088,1.23,4.624,4.624,0,0,1,1.114,3.226v7.1H6918.1v-6.894a3.132,3.132,0,0,0-.754-2.182,2.63,2.63,0,0,0-2.054-.835,2.871,2.871,0,0,0-2.136.847,2.961,2.961,0,0,0-.835,2.17v6.894h-1.788v-11.3h1.671v1.207A4.471,4.471,0,0,1,6915.684,187.094Z"/>
      <path id="Path_10765" data-name="Path 10765" d="M6934.231,187.094a4.38,4.38,0,0,1,3.2,1.183,4.573,4.573,0,0,1,1.207,3.413v6.963h-1.672v-1.462a4.439,4.439,0,0,1-3.807,1.718,4.491,4.491,0,0,1-2.843-.859,2.787,2.787,0,0,1-1.1-2.321,2.754,2.754,0,0,1,1.114-2.3,4.7,4.7,0,0,1,2.948-.859h3.575V191.6a2.878,2.878,0,0,0-.731-2.124,2.713,2.713,0,0,0-2.008-.731,4.076,4.076,0,0,0-3.3,1.81l-1.184-.975A5.08,5.08,0,0,1,6934.231,187.094Zm-.836,10.329a3.551,3.551,0,0,0,2.438-.9,2.839,2.839,0,0,0,1.021-2.205v-.279h-3.366q-2.437,0-2.437,1.6a1.51,1.51,0,0,0,.673,1.323A2.87,2.87,0,0,0,6933.4,197.423Z"/>
      <path id="Path_10766" data-name="Path 10766" d="M6954.078,187.094a3.953,3.953,0,0,1,3.087,1.23,4.62,4.62,0,0,1,1.115,3.226v7.1h-1.788v-6.894a3.135,3.135,0,0,0-.754-2.182,2.629,2.629,0,0,0-2.055-.835,2.87,2.87,0,0,0-2.135.847,2.962,2.962,0,0,0-.836,2.17v6.894h-1.787v-11.3h1.671v1.207A4.471,4.471,0,0,1,6954.078,187.094Z"/>
      <path id="Path_10767" data-name="Path 10767" d="M6973.67,187.094a5.293,5.293,0,0,1,4.665,2.46l-1.276,1.021a4.08,4.08,0,0,0-3.366-1.833,3.89,3.89,0,0,0-2.937,1.23,4.5,4.5,0,0,0,0,6.058,3.888,3.888,0,0,0,2.937,1.231,4.032,4.032,0,0,0,3.342-1.811l1.277,1a5.271,5.271,0,0,1-4.642,2.461,5.908,5.908,0,1,1,0-11.815Z"/>
      <path id="Path_10768" data-name="Path 10768" d="M6988.758,181.731a1.29,1.29,0,0,1,.928.383,1.29,1.29,0,0,1,.012,1.846,1.3,1.3,0,0,1-.94.371,1.34,1.34,0,0,1-.952-.371,1.276,1.276,0,0,1,0-1.846A1.317,1.317,0,0,1,6988.758,181.731Zm.882,5.618v11.3h-1.788v-11.3Z"/>
      <path id="Path_10769" data-name="Path 10769" d="M7004.124,187.094a4.38,4.38,0,0,1,3.2,1.183,4.573,4.573,0,0,1,1.207,3.413v6.963h-1.672v-1.462a4.436,4.436,0,0,1-3.806,1.718,4.492,4.492,0,0,1-2.844-.859,2.787,2.787,0,0,1-1.1-2.321,2.752,2.752,0,0,1,1.115-2.3,4.694,4.694,0,0,1,2.948-.859h3.574V191.6a2.874,2.874,0,0,0-.731-2.124,2.712,2.712,0,0,0-2.008-.731,4.076,4.076,0,0,0-3.3,1.81l-1.184-.975A5.08,5.08,0,0,1,7004.124,187.094Zm-.835,10.329a3.55,3.55,0,0,0,2.437-.9,2.839,2.839,0,0,0,1.021-2.205v-.279h-3.365q-2.437,0-2.438,1.6a1.51,1.51,0,0,0,.673,1.323A2.871,2.871,0,0,0,7003.289,197.423Z"/>
      <path id="Path_10770" data-name="Path 10770" d="M7020.6,181.244v17.409h-1.787V181.244Z"/>
      <path id="Path_10771" data-name="Path 10771" d="M7041.148,192.2a6.179,6.179,0,0,1-.139,1.347h-8.937a3.951,3.951,0,0,0,1.323,2.692,4.132,4.132,0,0,0,2.832,1.022,4.775,4.775,0,0,0,3.459-1.532l1.045,1.207a5.986,5.986,0,0,1-4.527,1.973,5.839,5.839,0,0,1-4.271-1.695,5.661,5.661,0,0,1-1.718-4.2,5.794,5.794,0,0,1,1.672-4.2,5.506,5.506,0,0,1,4.108-1.717,5.054,5.054,0,0,1,3.679,1.439A4.9,4.9,0,0,1,7041.148,192.2Zm-2.82-2.611a3.419,3.419,0,0,0-2.379-.871,3.667,3.667,0,0,0-2.461.894,4.085,4.085,0,0,0-1.346,2.356h7.173A3.116,3.116,0,0,0,7038.328,189.589Z"/>
      <path id="Path_10772" data-name="Path 10772" d="M7059.858,198.653h-2.066l-3.227-4.573-3.2,4.573h-2.089l4.248-5.9-3.9-5.408h2.066l2.9,4.109,2.878-4.109h2.066l-3.946,5.432Z"/>
      <path id="Path_10773" data-name="Path 10773" d="M7074.76,187.094a5.259,5.259,0,0,1,4.005,1.694,6.377,6.377,0,0,1,0,8.426,5.26,5.26,0,0,1-4.005,1.695,5.661,5.661,0,0,1-2.356-.5,4.742,4.742,0,0,1-1.8-1.381v5.8h-1.787V187.349h1.671v1.811a4.348,4.348,0,0,1,1.8-1.521A5.7,5.7,0,0,1,7074.76,187.094Zm-.255,10.167a3.8,3.8,0,0,0,2.867-1.207,4.236,4.236,0,0,0,1.149-3.041,4.289,4.289,0,0,0-1.138-3.064,3.782,3.782,0,0,0-2.878-1.207,3.909,3.909,0,0,0-2.774,1.079,4.96,4.96,0,0,0,0,6.349A3.885,3.885,0,0,0,7074.5,197.261Z"/>
      <path id="Path_10774" data-name="Path 10774" d="M7095.164,187.256a4.3,4.3,0,0,1,.836.093v1.578h-.673a3.764,3.764,0,0,0-2.507.882,3.02,3.02,0,0,0-1.045,2.438v6.406h-1.787v-11.3h1.671v1.6A4.148,4.148,0,0,1,7095.164,187.256Z"/>
      <path id="Path_10775" data-name="Path 10775" d="M7115.011,192.2a6.209,6.209,0,0,1-.139,1.347h-8.937a3.948,3.948,0,0,0,1.323,2.692,4.133,4.133,0,0,0,2.832,1.022,4.778,4.778,0,0,0,3.459-1.532l1.044,1.207a5.981,5.981,0,0,1-4.526,1.973,5.837,5.837,0,0,1-4.271-1.695,5.661,5.661,0,0,1-1.718-4.2,5.8,5.8,0,0,1,1.671-4.2,5.508,5.508,0,0,1,4.109-1.717,5.054,5.054,0,0,1,3.679,1.439A4.9,4.9,0,0,1,7115.011,192.2Zm-2.82-2.611a3.423,3.423,0,0,0-2.38-.871,3.662,3.662,0,0,0-2.46.894,4.086,4.086,0,0,0-1.346,2.356h7.172A3.11,3.11,0,0,0,7112.191,189.589Z"/>
      <path id="Path_10776" data-name="Path 10776" d="M7128.057,187.094a4.618,4.618,0,0,1,3.783,1.787l-1.091,1.114a3.762,3.762,0,0,0-2.785-1.253,2.3,2.3,0,0,0-1.358.371,1.208,1.208,0,0,0-.522,1.044,1.091,1.091,0,0,0,.417.894,6.242,6.242,0,0,0,1.416.755l1.045.441a6.829,6.829,0,0,1,2.286,1.427,2.688,2.688,0,0,1,.708,1.915,2.893,2.893,0,0,1-1.149,2.449,4.531,4.531,0,0,1-2.82.871,5.227,5.227,0,0,1-4.41-2.205l1.137-1.184a4.625,4.625,0,0,0,3.25,1.741,2.625,2.625,0,0,0,1.543-.43,1.356,1.356,0,0,0,.616-1.172,1.229,1.229,0,0,0-.465-1.033,6.532,6.532,0,0,0-1.509-.777l-1.09-.465a6.7,6.7,0,0,1-2.113-1.3,2.479,2.479,0,0,1-.7-1.834,2.757,2.757,0,0,1,1.091-2.321A4.335,4.335,0,0,1,7128.057,187.094Z"/>
      <path id="Path_10777" data-name="Path 10777" d="M7145.1,187.094a4.618,4.618,0,0,1,3.783,1.787l-1.091,1.114a3.761,3.761,0,0,0-2.785-1.253,2.3,2.3,0,0,0-1.358.371,1.208,1.208,0,0,0-.522,1.044,1.089,1.089,0,0,0,.418.894,6.2,6.2,0,0,0,1.416.755l1.044.441a6.85,6.85,0,0,1,2.287,1.427,2.694,2.694,0,0,1,.707,1.915,2.891,2.891,0,0,1-1.149,2.449,4.529,4.529,0,0,1-2.82.871,5.227,5.227,0,0,1-4.41-2.205l1.137-1.184a4.625,4.625,0,0,0,3.25,1.741,2.631,2.631,0,0,0,1.544-.43,1.357,1.357,0,0,0,.615-1.172,1.228,1.228,0,0,0-.465-1.033,6.537,6.537,0,0,0-1.508-.777l-1.091-.465a6.726,6.726,0,0,1-2.113-1.3,2.479,2.479,0,0,1-.7-1.834,2.757,2.757,0,0,1,1.091-2.321A4.335,4.335,0,0,1,7145.1,187.094Z"/>
      <path id="Path_10778" data-name="Path 10778" d="M7158.848,196.4a1.485,1.485,0,0,1,2.066,0,1.483,1.483,0,0,1,0,2.089,1.485,1.485,0,0,1-2.066,0,1.486,1.486,0,0,1,0-2.089Z"/>
      <path id="Path_10779" data-name="Path 10779" d="M7176.594,187.094a5.293,5.293,0,0,1,4.666,2.46l-1.277,1.021a4.078,4.078,0,0,0-3.366-1.833,3.885,3.885,0,0,0-2.936,1.23,4.5,4.5,0,0,0,0,6.058,3.883,3.883,0,0,0,2.936,1.231,4.034,4.034,0,0,0,3.343-1.811l1.277,1a5.272,5.272,0,0,1-4.643,2.461,5.908,5.908,0,1,1,0-11.815Z"/>
      <path id="Path_10780" data-name="Path 10780" d="M7195.884,187.094a5.746,5.746,0,0,1,4.19,1.706,5.927,5.927,0,0,1,0,8.368,5.983,5.983,0,0,1-8.392,0,5.956,5.956,0,0,1,0-8.368A5.732,5.732,0,0,1,7195.884,187.094Zm0,1.648a3.89,3.89,0,0,0-2.937,1.23,4.549,4.549,0,0,0,.012,6.058,3.859,3.859,0,0,0,2.9,1.207,3.916,3.916,0,0,0,2.924-1.218,4.144,4.144,0,0,0,1.184-3.006,4.231,4.231,0,0,0-1.172-3.053A3.879,3.879,0,0,0,7195.884,188.742Z"/>
      <path id="Path_10781" data-name="Path 10781" d="M7223.832,187.094a3.835,3.835,0,0,1,3.029,1.218,4.7,4.7,0,0,1,1.079,3.238v7.1h-1.787v-6.87a3.3,3.3,0,0,0-.708-2.206,2.432,2.432,0,0,0-1.961-.835,2.787,2.787,0,0,0-2.09.835,2.819,2.819,0,0,0-.812,2.043v7.033h-1.787v-6.87a3.227,3.227,0,0,0-.732-2.206,2.474,2.474,0,0,0-1.961-.835,2.73,2.73,0,0,0-2.078.847,3.064,3.064,0,0,0-.8,2.194v6.87h-1.788v-11.3h1.671v1.184a4.237,4.237,0,0,1,3.366-1.439,3.61,3.61,0,0,1,3.482,1.949A4.424,4.424,0,0,1,7223.832,187.094Z"/>
    </g>
    <path id="Path_10782" data-name="Path 10782" d="M6903,252.654a25.981,25.981,0,0,1-2.535,11.969,20.815,20.815,0,0,1-6.711,7.829,28.409,28.409,0,0,1-9,4.141,37.881,37.881,0,0,1-9.629,1.262,37.093,37.093,0,0,1-13.059-2.366,23.261,23.261,0,0,1-10.619-8.045q-4.271-5.68-4.272-14.79v-30.17h15.9V248.4a22.873,22.873,0,0,0,1.507,8.933,10.715,10.715,0,0,0,4.193,5.166,12.942,12.942,0,0,0,12.565.02,10.582,10.582,0,0,0,4.213-5.128,22.7,22.7,0,0,0,1.507-8.912v-25.99H6903Z" fill="#f35c04"/>
    <path id="Path_10783" data-name="Path 10783" d="M7028.763,252.654a25.981,25.981,0,0,1-2.535,11.969,20.81,20.81,0,0,1-6.711,7.829,28.4,28.4,0,0,1-9,4.141,37.9,37.9,0,0,1-9.629,1.262,37.085,37.085,0,0,1-13.059-2.366,23.259,23.259,0,0,1-10.62-8.045q-4.272-5.68-4.272-14.79v-30.17h15.9V248.4a22.864,22.864,0,0,0,1.507,8.933,10.715,10.715,0,0,0,4.193,5.166,12.942,12.942,0,0,0,12.565.02,10.582,10.582,0,0,0,4.213-5.128,22.7,22.7,0,0,0,1.508-8.912v-25.99h15.937Z" fill="#f35c04"/>
    <g id="Group_879" data-name="Group 879">
      <path id="Path_10784" data-name="Path 10784" d="M6855.159,332.7h0l3.327-8.577h-.007l5.046-13.083-6.33-16.872-20.44,48.532h14.5Z" fill="#f35c04"/>
      <path id="Path_10785" data-name="Path 10785" d="M6873.187,293.374H6860.66l4.84,12.93,6.807,17.819h-10.125l-3.311,8.577h16.688l3.829,10h14.5Z" fill="#f35c04"/>
    </g>
    <path id="Path_10786" data-name="Path 10786" d="M6919.244,303.262h13.739V293.241h-13.161v.009a33.915,33.915,0,0,0-10.8,1.495,25.021,25.021,0,0,0-8.608,4.559,20.955,20.955,0,0,0-5.879,7.748,26.254,26.254,0,0,0-2.1,10.868,26.913,26.913,0,0,0,1.779,9.932,21.657,21.657,0,0,0,5.355,7.9,23.688,23.688,0,0,0,8.438,5.113,31.407,31.407,0,0,0,11.981,1.811h12.993v-9.857H6920c-2.776-.017-13.129-1.862-13.129-14.7C6906.874,305.919,6916.435,303.262,6919.244,303.262Z" fill="#f35c04"/>
    <g id="Group_880" data-name="Group 880">
      <path id="Path_10787" data-name="Path 10787" d="M7010.673,330.024a12.853,12.853,0,0,1,0-25.4V291.946a25.467,25.467,0,0,0,0,50.753Z" fill="#f35c04"/>
      <path id="Path_10788" data-name="Path 10788" d="M7014.2,291.946v12.675a12.853,12.853,0,0,1,0,25.4V342.7a25.467,25.467,0,0,0,0-50.753Z" fill="#f35c04"/>
    </g>
    <g id="Group_881" data-name="Group 881">
      <path id="Path_10789" data-name="Path 10789" d="M6817.595,234.157h.047V223.194h-15.987v54.662h15.939V255.73h21.925v-11h-21.925Z" fill="#f35c04"/>
      <rect id="Rectangle_156" data-name="Rectangle 156" width="17.913" height="10.963" transform="translate(6821.607 223.194)" fill="#f35c04"/>
    </g>
    <g id="Group_882" data-name="Group 882">
      <path id="Path_10790" data-name="Path 10790" d="M6815.821,303.267h.042v-9.893h-14.208V342.7h14.166V322.733h19.485V312.8h-19.485Z" fill="#f35c04"/>
      <rect id="Rectangle_157" data-name="Rectangle 157" width="15.92" height="9.893" transform="translate(6819.387 293.374)" fill="#f35c04"/>
    </g>
    <g id="Group_883" data-name="Group 883">
      <rect id="Rectangle_158" data-name="Rectangle 158" width="19.301" height="10.963" transform="translate(7114.588 223.194)" fill="#f35c04"/>
      <rect id="Rectangle_159" data-name="Rectangle 159" width="19.95" height="11.003" transform="translate(7114.588 266.852)" fill="#f35c04"/>
      <path id="Path_10791" data-name="Path 10791" d="M7110.624,259.554h.006v-4.376h22.191v-11H7110.63v-2.221h-.006v-18.76H7094.69v54.662h15.934Z" fill="#f35c04"/>
    </g>
    <g id="Group_884" data-name="Group 884">
      <path id="Path_10792" data-name="Path 10792" d="M6910.646,223.194v11.114h19.37v.014h15.9v-.014h19.371V223.194Z" fill="#f35c04"/>
      <rect id="Rectangle_160" data-name="Rectangle 160" width="15.901" height="39.503" transform="translate(6930.016 238.352)" fill="#f35c04"/>
    </g>
    <g id="Group_885" data-name="Group 885">
      <path id="Path_10793" data-name="Path 10793" d="M6937.341,293.374V303.4h17.214v.013h14.132V303.4H6985.9V293.374Z" fill="#f35c04"/>
      <rect id="Rectangle_161" data-name="Rectangle 161" width="14.132" height="35.646" transform="translate(6954.555 307.052)" fill="#f35c04"/>
    </g>
    <g id="Group_886" data-name="Group 886">
      <path id="Path_10794" data-name="Path 10794" d="M7108.79,306.279l-8.964-12.905h-14.707L7101.65,317.2Z" fill="#f35c04"/>
      <path id="Path_10795" data-name="Path 10795" d="M7121.509,293.374l-17.654,27.005,0,.006V342.7h14.165V320.1l18.4-26.727Z" fill="#f35c04"/>
    </g>
    <path id="Path_10796" data-name="Path 10796" d="M7074.189,256.579a19.036,19.036,0,0,0,2.483-.79,16.215,16.215,0,0,0,6.083-4.062,15.9,15.9,0,0,0,3.259-5.4,17.908,17.908,0,0,0,1.011-5.936,18.548,18.548,0,0,0-1.011-6.034,15.968,15.968,0,0,0-3.259-5.482,16.3,16.3,0,0,0-6.083-4.1,23.605,23.605,0,0,0-9.018-1.577h-31.24v11.061h4.853v.012h17.651v.04h1.644c3.839,0,6.5-.143,7.989.816s2.23,2.742,2.23,5.345a6.989,6.989,0,0,1-.953,3.983,4.984,4.984,0,0,1-3.088,1.893,27.714,27.714,0,0,1-6.1.512h-3.432v-8.625h-15.94v39.624h15.94V257.347h3l11.649,20.508h15.185Z" fill="#f35c04"/>
    <path id="Path_10797" data-name="Path 10797" d="M7072.538,323.5a16.867,16.867,0,0,0,2.207-.713,14.016,14.016,0,0,0,8.3-8.541,16.375,16.375,0,0,0,.9-5.356,16.957,16.957,0,0,0-.9-5.445,14.047,14.047,0,0,0-8.3-8.648,20.69,20.69,0,0,0-8.015-1.423h-27.763v9.981h4.313v.011h15.686v.036h1.461c3.412,0,5.778-.129,7.1.737s1.982,2.473,1.982,4.822a6.372,6.372,0,0,1-.847,3.594,4.413,4.413,0,0,1-2.744,1.709,24.315,24.315,0,0,1-5.423.462h-3.05v-7.783H7043.28V342.7h14.165V324.193h2.666l10.353,18.506h13.5Z" fill="#f35c04"/>
    <g id="Group_887" data-name="Group 887">
      <path id="Path_10798" data-name="Path 10798" d="M6818.891,382.286V371.117h1.478v11.169Z"/>
      <path id="Path_10799" data-name="Path 10799" d="M6824.142,382.286V371.117h1.218l9.643,9.7h-.639v-9.7h1.458v11.169H6834.6l-9.624-9.7h.639v9.7Z"/>
      <path id="Path_10800" data-name="Path 10800" d="M6842.31,382.286V372.138H6837.4v-1.021h11.3v1.021h-4.911v10.148Z"/>
      <path id="Path_10801" data-name="Path 10801" d="M6851.754,381.265h8.405v1.021h-9.883V371.117h9.584v1.021h-8.106Zm-.16-5.154h7.387v1.005h-7.387Z"/>
      <path id="Path_10802" data-name="Path 10802" d="M6862.855,382.286V371.117h1.477v10.148h7.827v1.021Z"/>
      <path id="Path_10803" data-name="Path 10803" d="M6873.835,382.286V371.117h1.478v10.148h7.826v1.021Z"/>
      <path id="Path_10804" data-name="Path 10804" d="M6884.816,382.286V371.117h1.478v11.169Z"/>
      <path id="Path_10805" data-name="Path 10805" d="M6896.2,382.382a9.793,9.793,0,0,1-2.945-.423,7.346,7.346,0,0,1-2.335-1.189,5.553,5.553,0,0,1-1.538-1.8,4.95,4.95,0,0,1,0-4.531,5.523,5.523,0,0,1,1.548-1.8,7.5,7.5,0,0,1,2.345-1.189,9.824,9.824,0,0,1,2.945-.423,10.134,10.134,0,0,1,2.925.4,6.094,6.094,0,0,1,2.267,1.213l-.919.75a5.5,5.5,0,0,0-1.937-1.005,8.192,8.192,0,0,0-2.276-.3,7.9,7.9,0,0,0-2.386.344,6,6,0,0,0-1.9.972,4.636,4.636,0,0,0-1.258,1.469,3.991,3.991,0,0,0,0,3.677,4.585,4.585,0,0,0,1.258,1.476,5.964,5.964,0,0,0,1.9.974,7.823,7.823,0,0,0,2.366.343,8.709,8.709,0,0,0,2.266-.287,5.6,5.6,0,0,0,1.967-.974l.839.894a7.33,7.33,0,0,1-2.336,1.061A10.761,10.761,0,0,1,6896.2,382.382Zm3.714-1.563V376.7h1.418v4.26Z"/>
      <path id="Path_10806" data-name="Path 10806" d="M6906.2,381.265h8.406v1.021h-9.883V371.117h9.583v1.021H6906.2Zm-.16-5.154h7.388v1.005h-7.388Z"/>
      <path id="Path_10807" data-name="Path 10807" d="M6917.3,382.286V371.117h1.218l9.643,9.7h-.639v-9.7h1.458v11.169h-1.218l-9.624-9.7h.639v9.7Z"/>
      <path id="Path_10808" data-name="Path 10808" d="M6938.823,382.382a9.616,9.616,0,0,1-2.915-.423,7.246,7.246,0,0,1-2.316-1.189,5.6,5.6,0,0,1-1.528-1.8,4.95,4.95,0,0,1,0-4.531,5.573,5.573,0,0,1,1.538-1.8,7.377,7.377,0,0,1,2.326-1.189,9.645,9.645,0,0,1,2.915-.423,9.776,9.776,0,0,1,2.855.407,5.971,5.971,0,0,1,2.256,1.221l-.939.75a5.412,5.412,0,0,0-1.9-1.013,7.746,7.746,0,0,0-2.237-.312,7.65,7.65,0,0,0-2.335.344,5.9,5.9,0,0,0-1.877.972,4.683,4.683,0,0,0-1.248,1.469,4.009,4.009,0,0,0,0,3.686,4.677,4.677,0,0,0,1.248,1.467,5.858,5.858,0,0,0,1.877.974,8.063,8.063,0,0,0,4.572.024,5.549,5.549,0,0,0,1.9-1.021l.939.749a6.068,6.068,0,0,1-2.256,1.229A9.65,9.65,0,0,1,6938.823,382.382Z"/>
      <path id="Path_10809" data-name="Path 10809" d="M6947.807,381.265h8.406v1.021h-9.883V371.117h9.583v1.021h-8.106Zm-.16-5.154h7.388v1.005h-7.388Z"/>
      <path id="Path_10810" data-name="Path 10810" d="M7003.43,382.286V371.117h1.477v11.169Z"/>
      <path id="Path_10811" data-name="Path 10811" d="M7008.68,382.286V371.117h1.218l9.644,9.7h-.639v-9.7h1.457v11.169h-1.217l-9.624-9.7h.639v9.7Z"/>
      <path id="Path_10812" data-name="Path 10812" d="M7024.134,382.286V371.117h1.218l9.643,9.7h-.639v-9.7h1.458v11.169H7034.6l-9.624-9.7h.639v9.7Z"/>
      <path id="Path_10813" data-name="Path 10813" d="M7045.7,382.382a9.726,9.726,0,0,1-2.925-.423,7.254,7.254,0,0,1-2.336-1.2,5.676,5.676,0,0,1-1.537-1.8,4.917,4.917,0,0,1,0-4.515,5.676,5.676,0,0,1,1.537-1.8,7.3,7.3,0,0,1,2.326-1.2,10.323,10.323,0,0,1,5.85,0,7.393,7.393,0,0,1,2.326,1.189,5.585,5.585,0,0,1,1.538,1.8,4.95,4.95,0,0,1,0,4.531,5.564,5.564,0,0,1-1.538,1.8,7.371,7.371,0,0,1-2.326,1.189A9.621,9.621,0,0,1,7045.7,382.382Zm0-1.053a7.557,7.557,0,0,0,2.326-.343,5.759,5.759,0,0,0,1.857-.974,4.615,4.615,0,0,0,1.228-1.467,4.088,4.088,0,0,0,0-3.686,4.622,4.622,0,0,0-1.228-1.469,5.8,5.8,0,0,0-1.857-.972,7.557,7.557,0,0,0-2.326-.344,7.661,7.661,0,0,0-2.336.344,5.89,5.89,0,0,0-1.876.972,4.555,4.555,0,0,0-1.238,1.469,4.061,4.061,0,0,0,0,3.677,4.506,4.506,0,0,0,1.238,1.476,5.853,5.853,0,0,0,1.876.974A7.661,7.661,0,0,0,7045.7,381.329Z"/>
      <path id="Path_10814" data-name="Path 10814" d="M7059.113,382.286l-6.189-11.169h1.6l5.79,10.515h-.878l5.83-10.515h1.5l-6.189,11.169Z"/>
      <path id="Path_10815" data-name="Path 10815" d="M7065.342,382.286l6.389-11.169h1.458l6.389,11.169h-1.557l-5.87-10.483h.6l-5.87,10.483Zm2.516-2.983.439-.958h8.126l.44.958Z"/>
      <path id="Path_10816" data-name="Path 10816" d="M7083.132,382.286V372.138h-4.912v-1.021h11.3v1.021h-4.912v10.148Z"/>
      <path id="Path_10817" data-name="Path 10817" d="M7091.1,382.286V371.117h1.477v11.169Z"/>
      <path id="Path_10818" data-name="Path 10818" d="M7102.458,382.382a9.726,9.726,0,0,1-2.925-.423,7.252,7.252,0,0,1-2.336-1.2,5.674,5.674,0,0,1-1.537-1.8,4.913,4.913,0,0,1,0-4.515,5.674,5.674,0,0,1,1.537-1.8,7.3,7.3,0,0,1,2.326-1.2,10.325,10.325,0,0,1,5.85,0,7.393,7.393,0,0,1,2.326,1.189,5.584,5.584,0,0,1,1.538,1.8,4.946,4.946,0,0,1,0,4.531,5.563,5.563,0,0,1-1.538,1.8,7.371,7.371,0,0,1-2.326,1.189A9.625,9.625,0,0,1,7102.458,382.382Zm0-1.053a7.562,7.562,0,0,0,2.326-.343,5.759,5.759,0,0,0,1.857-.974,4.615,4.615,0,0,0,1.228-1.467,4.088,4.088,0,0,0,0-3.686,4.622,4.622,0,0,0-1.228-1.469,5.8,5.8,0,0,0-1.857-.972,7.561,7.561,0,0,0-2.326-.344,7.659,7.659,0,0,0-2.336.344,5.88,5.88,0,0,0-1.876.972,4.55,4.55,0,0,0-1.238,1.469,4.061,4.061,0,0,0,0,3.677,4.5,4.5,0,0,0,1.238,1.476,5.843,5.843,0,0,0,1.876.974A7.659,7.659,0,0,0,7102.458,381.329Z"/>
      <path id="Path_10819" data-name="Path 10819" d="M7112.321,382.286V371.117h1.218l9.643,9.7h-.639v-9.7H7124v11.169h-1.218l-9.623-9.7h.639v9.7Z"/>
      <path id="Path_10820" data-name="Path 10820" d="M7172.3,382.286V371.117h1.478v11.169Z"/>
      <path id="Path_10821" data-name="Path 10821" d="M7177.547,382.286V371.117h1.218l9.643,9.7h-.639v-9.7h1.458v11.169h-1.218l-9.624-9.7h.639v9.7Z"/>
      <path id="Path_10822" data-name="Path 10822" d="M7195.715,382.286V372.138H7190.8v-1.021h11.3v1.021h-4.911v10.148Z"/>
      <path id="Path_10823" data-name="Path 10823" d="M7205.159,381.265h8.4v1.021h-9.883V371.117h9.584v1.021h-8.106Zm-.16-5.154h7.387v1.005H7205Z"/>
      <path id="Path_10824" data-name="Path 10824" d="M7222.349,382.382a9.8,9.8,0,0,1-2.945-.423,7.362,7.362,0,0,1-2.336-1.189,5.555,5.555,0,0,1-1.537-1.8,4.95,4.95,0,0,1,0-4.531,5.521,5.521,0,0,1,1.547-1.8,7.5,7.5,0,0,1,2.346-1.189,9.83,9.83,0,0,1,2.945-.423,10.128,10.128,0,0,1,2.925.4,6.086,6.086,0,0,1,2.266,1.213l-.918.75a5.51,5.51,0,0,0-1.937-1.005,8.2,8.2,0,0,0-2.276-.3,7.893,7.893,0,0,0-2.386.344,6,6,0,0,0-1.9.972,4.641,4.641,0,0,0-1.258,1.469,3.987,3.987,0,0,0,0,3.677,4.59,4.59,0,0,0,1.258,1.476,5.959,5.959,0,0,0,1.9.974,7.822,7.822,0,0,0,2.366.343,8.708,8.708,0,0,0,2.266-.287,5.6,5.6,0,0,0,1.967-.974l.838.894a7.315,7.315,0,0,1-2.336,1.061A10.758,10.758,0,0,1,7222.349,382.382Zm3.714-1.563V376.7h1.417v4.26Z"/>
      <path id="Path_10825" data-name="Path 10825" d="M7230.874,382.286V371.117h5.231a9.142,9.142,0,0,1,3.055.455,4.3,4.3,0,0,1,1.967,1.308,3.188,3.188,0,0,1,.689,2.067,3.141,3.141,0,0,1-.689,2.034,4.3,4.3,0,0,1-1.967,1.308,9.142,9.142,0,0,1-3.055.455h-4.412l.659-.543v4.085Zm1.478-3.989-.659-.558h4.372a5.709,5.709,0,0,0,3.185-.734,2.507,2.507,0,0,0,0-4.133,5.709,5.709,0,0,0-3.185-.734h-4.372l.659-.559Zm8.066,3.989-3.594-4.053h1.6l3.614,4.053Z"/>
      <path id="Path_10826" data-name="Path 10826" d="M7242.294,382.286l6.389-11.169h1.458l6.389,11.169h-1.557L7249.1,371.8h.6l-5.87,10.483Zm2.516-2.983.439-.958h8.126l.44.958Z"/>
      <path id="Path_10827" data-name="Path 10827" d="M7260.084,382.286V372.138h-4.911v-1.021h11.3v1.021h-4.912v10.148Z"/>
      <path id="Path_10828" data-name="Path 10828" d="M7268.05,382.286V371.117h1.478v11.169Z"/>
      <path id="Path_10829" data-name="Path 10829" d="M7279.41,382.382a9.727,9.727,0,0,1-2.925-.423,7.254,7.254,0,0,1-2.336-1.2,5.682,5.682,0,0,1-1.537-1.8,4.917,4.917,0,0,1,0-4.515,5.682,5.682,0,0,1,1.537-1.8,7.3,7.3,0,0,1,2.326-1.2,10.325,10.325,0,0,1,5.85,0,7.39,7.39,0,0,1,2.326,1.189,5.585,5.585,0,0,1,1.538,1.8,4.95,4.95,0,0,1,0,4.531,5.564,5.564,0,0,1-1.538,1.8,7.369,7.369,0,0,1-2.326,1.189A9.625,9.625,0,0,1,7279.41,382.382Zm0-1.053a7.556,7.556,0,0,0,2.326-.343,5.754,5.754,0,0,0,1.857-.974,4.609,4.609,0,0,0,1.228-1.467,4.088,4.088,0,0,0,0-3.686,4.615,4.615,0,0,0-1.228-1.469,5.79,5.79,0,0,0-1.857-.972,7.556,7.556,0,0,0-2.326-.344,7.657,7.657,0,0,0-2.336.344,5.89,5.89,0,0,0-1.876.972,4.55,4.55,0,0,0-1.238,1.469,4.061,4.061,0,0,0,0,3.677,4.5,4.5,0,0,0,1.238,1.476,5.853,5.853,0,0,0,1.876.974A7.657,7.657,0,0,0,7279.41,381.329Z"/>
      <path id="Path_10830" data-name="Path 10830" d="M7289.273,382.286V371.117h1.218l9.643,9.7h-.638v-9.7h1.457v11.169h-1.218l-9.623-9.7h.639v9.7Z"/>
    </g>
    <circle id="Ellipse_359" data-name="Ellipse 359" cx="3.454" cy="3.454" r="3.454" transform="translate(6976.442 373.378)" fill="#f20406"/>
    <circle id="Ellipse_360" data-name="Ellipse 360" cx="3.454" cy="3.454" r="3.454" transform="translate(7139.495 373.378)" fill="#f20406"/>
    <g id="Group_888" data-name="Group 888">
      <path id="Path_10831" data-name="Path 10831" d="M7266.233,261.671q0,4.428,0,8.855c0,.909-.037.91-.949.96a17.591,17.591,0,0,0-15.745,11.82,16.84,16.84,0,0,0-.939,7.277,17.755,17.755,0,0,0,11.616,15.113,17.358,17.358,0,0,0,8.356.84,17.152,17.152,0,0,0,9.4-4.319,17.346,17.346,0,0,0,5.413-9.161,24.969,24.969,0,0,0,.427-3.394c.053-.542.282-.711.8-.71,2.69,0,5.38-.029,8.07-.029,3.226,0,6.452.024,9.678.036,1.022,0,1.022,0,1.023,1.049,0,1.505,0,3.011,0,4.517,0,.78-.023.8-.823.8-1.024,0-2.048.012-3.072,0a7.54,7.54,0,0,0-7.345,6.361,7.349,7.349,0,0,0,2.213,6.778c.708.708,1.408,1.425,2.128,2.121.3.292.347.511.02.836q-4.056,4.027-8.083,8.084c-.261.264-.412.2-.633-.021-.763-.767-1.56-1.5-2.305-2.286a7,7,0,0,0-5.546-2.294,7.618,7.618,0,0,0-7.327,5.856,22.553,22.553,0,0,0-.2,4.193,6.529,6.529,0,0,0,0,.782c.027.425-.178.575-.578.561-.421-.014-.843,0-1.265,0q-4.789,0-9.577,0c-1.011,0-1,0-1.017-.987-.025-1.222-.109-2.463-.023-3.665a5.467,5.467,0,0,0-1.118-3.128,6.584,6.584,0,0,0-2.77-2.6,7.5,7.5,0,0,0-9.219,1.307c-.719.728-1.459,1.435-2.164,2.176-.288.3-.489.312-.783.016q-3.979-4-7.983-7.98c-.345-.342-.3-.546.011-.87a25.592,25.592,0,0,0,3.172-3.363,7.336,7.336,0,0,0,.254-7.971,7.086,7.086,0,0,0-6.63-3.9c-1,0-2.009-.025-3.012.01-.564.019-.719-.2-.716-.74.019-3.654.009-7.308.01-10.962,0-.742.069-.811.837-.817,1.064-.007,2.129-.024,3.193,0a7.313,7.313,0,0,0,6.893-5.132,7.416,7.416,0,0,0-2.006-8.088c-.7-.687-1.376-1.4-2.084-2.082-.272-.262-.25-.434.006-.688q4.052-4.035,8.088-8.087c.249-.251.415-.29.684-.01.793.822,1.615,1.615,2.427,2.418a7.7,7.7,0,0,0,12.41-2.679,9.116,9.116,0,0,0,.524-3.242c.013-.883.018-1.767,0-2.65-.01-.478.147-.678.66-.67,1.625.027,3.252.031,4.878,0,.564-.011.731.19.728.729C7266.224,255.648,7266.233,258.66,7266.233,261.671Z" fill="#fff"/>
      <path id="Path_10832" data-name="Path 10832" d="M7194.814,316.853q0-4.276,0-8.552,0-16.542.007-33.083,0-9.934,0-19.868c0-.9,0-.9.9-.9q6.532-.046,13.065-.1c.957-.007.907.005.979.978.036.483-.021,30.6-.021,44.214,0,.982,0,.983,1,.984q4.247,0,8.492,0c.821,0,.884.062.885.9q0,5.24,0,10.479c0,.782-.014.792-.823.792h-8.733c-.815,0-.817,0-.817.839q0,5.9,0,11.8c0,.949,0,.951-.921.951q-6.564,0-13.129,0c-.847,0-.87-.023-.871-.887q0-4.277,0-8.552Z" fill="#fff"/>
      <path id="Path_10833" data-name="Path 10833" d="M7175.714,300.447a1.468,1.468,0,0,0,.742.077q7.257.006,14.515,0c1.04,0,1.059.02,1.06,1.033,0,2.189-.012,10.123,0,10.625.008.4-.186.522-.558.516-.823-.014-1.655.071-2.468-.022a29.671,29.671,0,0,0-3.388.019q-10.72,0-21.442,0c-.812,0-.817,0-.817-.79,0-4.276.02-8.552-.023-12.828a3.827,3.827,0,0,1,.929-2.341c1.975-2.723,3.978-5.425,5.97-8.135q3.576-4.865,7.151-9.73l7.682-10.459q3.183-4.332,6.37-8.663c.127-.173.275-.331.414-.5.257.2.176.441.176.648q.008,8.883.01,17.766a1.774,1.774,0,0,1-.359,1.115q-4.934,6.663-9.856,13.334-2.979,4.035-5.948,8.079C7175.818,300.273,7175.771,300.357,7175.714,300.447Z" fill="#fff"/>
      <path id="Path_10834" data-name="Path 10834" d="M7300.506,286.16c-.7,0-1.4-.015-2.107.006-.478.014-.661-.168-.7-.66a29.168,29.168,0,0,0-2-8.2,31.242,31.242,0,0,0-5.1-8.6,36.743,36.743,0,0,0-4.683-4.564,30.506,30.506,0,0,0-7.765-4.5,27.027,27.027,0,0,0-5.695-1.682c-.848-.159-1.7-.295-2.556-.373-.546-.05-.816-.234-.8-.853.044-1.364.035-2.73,0-4.094-.013-.566.194-.766.739-.691,1.727.24,3.455.469,5.154.88a37.131,37.131,0,0,1,25.853,22.359,38.265,38.265,0,0,1,2.478,10.309c.051.469-.12.669-.6.658C7301.992,286.147,7301.249,286.16,7300.506,286.16Z" fill="#fff"/>
      <path id="Path_10835" data-name="Path 10835" d="M7290.244,286.161c-.7,0-1.406-.02-2.107.006a.675.675,0,0,1-.8-.677,19.674,19.674,0,0,0-1.526-5.172,21.47,21.47,0,0,0-7.77-9.2,22.061,22.061,0,0,0-2.485-1.414,18.856,18.856,0,0,0-4.36-1.485c-.587-.132-1.177-.249-1.769-.359-.318-.059-.352-.276-.35-.535.014-1.506.038-3.011.032-4.516,0-.442.156-.54.579-.49a25.708,25.708,0,0,1,8.75,2.66,26.507,26.507,0,0,1,11.7,11.522,28.115,28.115,0,0,1,2.829,8.83c.115.739.032.829-.735.833C7291.57,286.164,7290.907,286.161,7290.244,286.161Z" fill="#fff"/>
      <path id="Path_10836" data-name="Path 10836" d="M7235.55,322.277a7.344,7.344,0,1,1-7.328-7.393A7.29,7.29,0,0,1,7235.55,322.277Z" fill="#fff"/>
      <path id="Path_10837" data-name="Path 10837" d="M7275.88,286.161c-2.007,0-4.013-.017-6.019.01-.582.008-.758-.2-.755-.767.015-2.729-.015-5.457-.012-8.186,0-1.338.048-2.677.054-4.016,0-.38.1-.586.519-.492a18.407,18.407,0,0,1,4.58,1.676,15.8,15.8,0,0,1,6.855,7.026,19.966,19.966,0,0,1,1.312,3.414,2.961,2.961,0,0,1,.085.351c.159.944.125.984-.841.984Z" fill="#fff"/>
    </g>
    <g id="Group_889" data-name="Group 889">
      <rect id="Rectangle_162" data-name="Rectangle 162" width="515.727" height="2.551" transform="translate(6802.146 393.396)" fill="#f20406"/>
    </g>
  </g>
</svg>
