<svg xmlns="http://www.w3.org/2000/svg" xmlns:xlink="http://www.w3.org/1999/xlink" width="60.103" height="60.1" viewBox="0 0 60.103 60.1">
  <defs>
    <linearGradient id="linear-gradient" y1="0.5" x2="1" y2="0.5" gradientUnits="objectBoundingBox">
      <stop offset="0" stop-color="#f35c04"/>
      <stop offset="1" stop-color="#f20406"/>
    </linearGradient>
  </defs>
  <path id="HixbWm.tif" d="M6766.791,3105.9c.03-.064.059-.129.09-.193a1.431,1.431,0,0,1,1.562-.948,1.389,1.389,0,0,1,1.1,1.523c0,3.225-.009,6.45.007,9.674a4.163,4.163,0,0,0,2.989,4.2,6.489,6.489,0,0,0,1.758.216c3.13-.007,6.26,0,9.389-.006a1.364,1.364,0,0,1,1.368.824,1.287,1.287,0,0,1-.249,1.452,1.426,1.426,0,0,1-1.152.471c-3.578-.021-7.162.182-10.734-.095a6.769,6.769,0,0,1-6.02-5.745c-.027-.186-.071-.37-.108-.555Zm6.4-42.837a7.524,7.524,0,0,0-3.807,1.551,6.766,6.766,0,0,0-2.5,4.443,3.88,3.88,0,0,1-.1.41v10.816q.623,1.348,1.649,1.141c.75-.152,1.1-.7,1.1-1.73q0-4.615,0-9.232a5.872,5.872,0,0,1,.223-1.682,4.183,4.183,0,0,1,4.283-2.958c3.22-.016,6.439,0,9.659-.009a1.365,1.365,0,0,0,1.446-1.1,1.414,1.414,0,0,0-.883-1.531c-.085-.042-.172-.078-.258-.117Zm36.433,0c-.087.039-.174.075-.259.117a1.414,1.414,0,0,0-.883,1.534,1.369,1.369,0,0,0,1.452,1.1c3.225.008,6.45-.013,9.675.01a4.2,4.2,0,0,1,4.476,4.46c.022,1.683,0,3.367.005,5.051,0,1.565-.009,3.13.006,4.7a1.36,1.36,0,0,0,1.223,1.414,1.382,1.382,0,0,0,1.464-1.168,3.147,3.147,0,0,0,.067-.634c0-3.154.035-6.308-.008-9.461a6.891,6.891,0,0,0-3.512-6.193,8.22,8.22,0,0,0-2.89-.924Zm5.475,20.765a1.971,1.971,0,0,0-1.106-1.951q-8.118-4.645-16.206-9.342a1.739,1.739,0,0,0-1.928-.006q-8.119,4.713-16.263,9.386a1.894,1.894,0,0,0-1.057,1.837q.034,9.319,0,18.639a1.943,1.943,0,0,0,1.084,1.9q8.055,4.612,16.079,9.278a2,2,0,0,0,2.245.009q8.052-4.687,16.14-9.315a1.784,1.784,0,0,0,1.008-1.719c-.031-3.154-.013-6.308-.012-9.462C6815.087,3089.992,6815.058,3086.909,6815.1,3083.826Zm-13.557,4.951c-1.4.806-2.8,1.6-4.184,2.42a.89.89,0,0,1-1.036.026q-6.636-3.861-13.291-7.688c-.08-.046-.152-.1-.232-.162.111-.264.361-.321.554-.432q6.428-3.724,12.861-7.439a.971.971,0,0,1,1.109-.062q6.573,3.827,13.167,7.618c.12.069.232.152.445.292Zm10.785,12.579a1.073,1.073,0,0,1-.613,1.075c-4.237,2.423-8.459,4.871-12.688,7.308-.752.434-.793.409-.793-.474,0-4.858.008-9.717-.012-14.575a1.244,1.244,0,0,1,.71-1.242c4.239-2.419,8.461-4.868,12.691-7.3.685-.394.694-.385.695.423q0,3.7,0,7.394C6812.322,3096.427,6812.311,3098.892,6812.332,3101.356Zm-31.013-14.856c0-.553.057-.746.64-.407q6.456,3.757,12.937,7.47a.937.937,0,0,1,.511.922q-.011,7.471,0,14.942c0,.662-.22.652-.7.373q-6.4-3.711-12.814-7.4a1.04,1.04,0,0,1-.577-1.032c.016-2.49.008-4.981.008-7.471C6781.326,3091.433,6781.337,3088.967,6781.319,3086.5Zm28.7,33.865a1.487,1.487,0,0,0-.889.187,1.356,1.356,0,0,0,.371,2.478,7.4,7.4,0,0,0,1.982.091c3.127-.048,6.259.165,9.38-.111a6.729,6.729,0,0,0,5.866-5.811c.309-3.64.084-7.295.112-10.943a1.424,1.424,0,0,0-.472-1.151,1.286,1.286,0,0,0-1.452-.25,1.364,1.364,0,0,0-.825,1.366c.008,3.224.021,6.448,0,9.671a4.217,4.217,0,0,1-4.469,4.468c-1.564.02-3.129,0-4.693,0Z" transform="translate(-6766.791 -3063.061)" fill="url(#linear-gradient)"/>
</svg>
